<?xml version="1.0" encoding="utf-8"?>
<!-- Generator: Adobe Illustrator 27.5.0, SVG Export Plug-In . SVG Version: 6.00 Build 0)  -->
<svg version="1.1" xmlns="http://www.w3.org/2000/svg" xmlns:xlink="http://www.w3.org/1999/xlink" x="0px" y="0px"
	 viewBox="75 75 350 250" xml:space="preserve">
<g id="Layer_3">
	<path style="fill:#a1c349;" d="M167.463,294.543c-4.005,0-8.112-0.234-12.333-0.705c-38.156-4.24-65.85-33.586-65.85-69.773
		c0-38.506,30.011-69.834,66.899-69.834c9.049,0,17.831,1.857,25.977,5.447c6.812-31.014,33.466-54.221,65.214-54.221
		c23.186,0,44.388,12.252,56.715,32.777c2.701,4.498,1.245,10.334-3.252,13.035c-4.497,2.703-10.333,1.246-13.036-3.252
		c-8.86-14.754-23.974-23.561-40.427-23.561c-26.412,0-47.899,22.803-47.899,50.832v19.256l-15.281-11.717
		c-8.189-6.279-17.875-9.598-28.011-9.598c-26.412,0-47.899,22.805-47.899,50.834c0,26.76,20.128,47.688,48.949,50.891
		c48.106,5.344,67.953-27.395,87.146-59.059c0.947-1.563,1.885-3.109,2.817-4.637c7.699-12.609,17.576-27.043,32.458-38.504
		c18.388-14.162,40.25-20.273,64.973-18.172c17.879,1.521,34.401,9.152,46.522,21.486c12.621,12.844,19.572,30.002,19.572,48.313
		c0,38.506-30.011,69.834-66.899,69.834c-14.353,0-28.038-4.676-39.573-13.52c-4.164-3.193-4.951-9.156-1.758-13.32
		c3.192-4.164,9.156-4.951,13.32-1.758c8.189,6.279,17.875,9.598,28.011,9.598c26.412,0,47.899-22.805,47.899-50.834
		c0-27.074-20.483-48.467-48.705-50.867c-42.314-3.594-63.986,22.064-79.605,47.646c-0.922,1.508-1.849,3.039-2.785,4.584
		c-9.826,16.211-20.963,34.584-37.043,48.26C207.395,287.77,188.942,294.543,167.463,294.543z"/>
</g>
</svg>
